<?xml version="1.0" encoding="iso-8859-1"?>
<!-- Generator: Adobe Illustrator 18.0.0, SVG Export Plug-In . SVG Version: 6.00 Build 0)  -->
<!DOCTYPE svg PUBLIC "-//W3C//DTD SVG 1.1//EN" "http://www.w3.org/Graphics/SVG/1.1/DTD/svg11.dtd">
<svg version="1.1" id="Capa_1" xmlns="http://www.w3.org/2000/svg" xmlns:xlink="http://www.w3.org/1999/xlink" x="0px" y="0px"
	 viewBox="0 0 481.528 481.528" style="enable-background:new 0 0 481.528 481.528;" xml:space="preserve" width='40px' height='40px'>
<g id="XMLID_248_">
	<path id="XMLID_249_" d="M440.367,254.414c-16.42-14.159-7.432-51.529-21.576-35.108c-11.476,13.321-21.044,42.251-15.607,60.337
		c-25.738-2.151-64.25-11.538-105.281-43.424c-24.775-19.253-43.16-102.504-148.611-102.504
		c-62.028,0-112.314,45.897-112.314,102.504c0,28.014,12.338,53.375,32.302,71.885c23.514-6.565,49.597-1.573,68.864,15.512
		c27.858-24.705,70.077-24.728,97.951-0.007c27.88-24.721,70.115-24.698,97.965,0.007c21.044-18.673,50.27-23.194,75.336-13.658
		c6.461-4.765,11.381-9.818,15.224-14.481c18.422,0.508,42.938-12.485,53.657-24.924
		C492.428,254.133,456.795,268.557,440.367,254.414z M91.912,260.398c-3.795,0-6.87-3.074-6.87-6.868
		c0-3.794,3.074-6.868,6.87-6.868c3.794,0,6.86,3.074,6.86,6.868C98.772,257.324,95.706,260.398,91.912,260.398z" fill='#00D6FF'/>
	<path id="XMLID_252_" d="M149.168,117.295c0.852,6.876-0.117-10.271,22.178-13.62c6.844-1.031,11.758-7.11,10.904-13.972
		c-0.844-6.883-7.11-11.757-13.97-10.912C147.884,81.309,148.33,110.426,149.168,117.295z" fill='#00D6FF'/>
	<path id="XMLID_253_" d="M107.111,89.946c22.453-2.184,25.682,14.691,24.83,7.823c-0.853-6.885-7.511-35.228-27.904-32.707
		c-6.86,0.852-11.75,7.102-10.906,13.979C93.985,85.909,100.227,90.619,107.111,89.946z" fill='#00D6FF'/>
	<path id="XMLID_254_" d="M151.374,51.825c3.583-2.189,4.896-6.759,2.776-10.396c-2.104-3.655-6.766-4.898-10.412-2.786
		c-10.811,6.251-3.645,22.443-1.541,26.082C144.31,68.371,139.686,58.998,151.374,51.825z" fill='#00D6FF'/>
	<path id="XMLID_255_" d="M445.404,343.329c-7.142,7.126-19.658,7.118-26.786-0.008c-19.62-19.62-51.529-19.604-71.148-0.008
		c-7.393,7.386-19.408,7.399-26.8,0c-19.636-19.596-51.561-19.612-71.181,0.008c-7.392,7.378-19.392,7.386-26.778-0.008
		c-19.65-19.612-51.576-19.612-71.179,0.016c-7.354,7.378-19.37,7.393-26.778,0c-19.62-19.611-51.553-19.628-71.181-0.008
		c-7.143,7.158-19.62,7.158-26.778,0c-6.133-6.125-16.068-6.125-22.193,0c-6.135,6.133-6.135,16.067,0,22.194
		c9.504,9.512,22.147,14.746,35.585,14.746c13.44,0,26.09-5.242,35.586-14.738c7.394-7.386,19.402-7.378,26.794,0.007
		c19.611,19.597,51.545,19.621,71.157-0.007c7.384-7.37,19.4-7.394,26.794-0.008c19.612,19.611,51.537,19.619,71.165,0.008
		c7.384-7.386,19.4-7.386,26.792,0c19.611,19.604,51.553,19.604,71.181,0c7.392-7.378,19.4-7.37,26.77-0.008
		c18.993,18.993,52.21,19.001,71.189-0.008c6.124-6.125,6.124-16.068-0.016-22.194C461.457,337.196,451.522,337.179,445.404,343.329
		z" fill='#00D6FF'/>
	<path id="XMLID_256_" d="M445.404,406.982c-7.142,7.126-19.658,7.118-26.786-0.008c-19.62-19.62-51.529-19.604-71.148-0.008
		c-7.393,7.386-19.408,7.4-26.8,0c-19.636-19.596-51.561-19.612-71.181,0.008c-7.392,7.378-19.392,7.386-26.778-0.008
		c-19.65-19.612-51.576-19.612-71.179,0.016c-7.354,7.378-19.37,7.392-26.778,0c-19.62-19.611-51.553-19.628-71.181-0.008
		c-7.143,7.158-19.62,7.158-26.778,0c-6.133-6.125-16.068-6.125-22.193,0c-6.135,6.133-6.135,16.067,0,22.194
		c9.504,9.512,22.147,14.745,35.585,14.745c13.44,0,26.09-5.242,35.586-14.737c7.394-7.386,19.402-7.378,26.794,0.006
		c19.611,19.598,51.545,19.622,71.157-0.006c7.384-7.37,19.4-7.394,26.794-0.008c19.612,19.611,51.537,19.619,71.165,0.008
		c7.384-7.386,19.4-7.386,26.792,0c19.611,19.603,51.553,19.603,71.181,0c7.392-7.378,19.4-7.37,26.77-0.008
		c18.993,18.993,52.21,19.001,71.189-0.009c6.124-6.125,6.124-16.067-0.016-22.193C461.457,400.849,451.522,400.833,445.404,406.982
		z" fill='#00D6FF'/>
</g>
<g>
</g>
<g>
</g>
<g>
</g>
<g>
</g>
<g>
</g>
<g>
</g>
<g>
</g>
<g>
</g>
<g>
</g>
<g>
</g>
<g>
</g>
<g>
</g>
<g>
</g>
<g>
</g>
<g>
</g>
</svg>
